<svg xmlns="http://www.w3.org/2000/svg" id="a" data-name="Ebene 1" width="169" height="85" viewBox="0 0 169 85"><path d="M168.779,23.509l.042-10.881h-12.992V.309h-12.262l.042,10.7-8.338,1.62-.043,10.88h8.044v21.689c0,10.037,2.32,16.1,7.441,19.1,2.03,1.086,4.298,1.652,6.6,1.645,4.308,0,9.7-2.509,9.7-2.509v-9.725h-4.219c-5.591,0-6.965-1.96-6.965-7.453V23.509h12.95ZM54.093,11.179c-5.597,.165-10.974,2.22-15.255,5.83h-.2c-2.939-3.843-7.171-5.915-13.572-5.784-4.891,.309-9.509,2.361-13.017,5.784h-.2v-4.358H.179l.027,51.9H12.579l-.026-31.16v-7.337s5.66-2.551,10.18-2.551c5.429,0,7.756,2.423,7.756,8.919l.027,32.129h11.694l-.031-31.165v-7.337s5.66-2.551,10.18-2.551c5.429,0,7.756,2.423,7.756,8.919v32.129h11.676v-31.955c0-15.294-5.173-21.412-17.698-21.412Zm60.486,32.607v7.337s-5.661,2.551-10.18,2.551c-5.43,0-7.756-2.423-7.756-8.919V12.628h-12.6v31.927c0,15.373,6.342,21.384,16.834,21.384,5.066-.177,9.882-2.244,13.5-5.794h.2v24.546l4.825-1.949c5.328-2.213,7.729-2.515,7.729-9.011V12.631h-12.552v31.155Z"></path></svg>